<?xml version="1.0" encoding="UTF-8" standalone="no"?>
<!DOCTYPE svg PUBLIC "-//W3C//DTD SVG 1.1//EN" "http://www.w3.org/Graphics/SVG/1.1/DTD/svg11.dtd">
<!-- Created with Vectornator (http://vectornator.io/) -->
<svg height="100%" stroke-miterlimit="10" style="fill-rule:nonzero;clip-rule:evenodd;stroke-linecap:round;stroke-linejoin:round;" version="1.1" viewBox="0 0 392.663 392.663" width="100%" xml:space="preserve" xmlns="http://www.w3.org/2000/svg" xmlns:vectornator="http://vectornator.io" xmlns:xlink="http://www.w3.org/1999/xlink">
<defs/>
<g id="Untitled" vectornator:layerName="Untitled">
<path d="M240.711 0C222.933 0 206.836 8.21 196.428 21.333C186.02 8.21 169.923 0 152.145 0C120.985 0 95.709 25.341 95.709 56.436C95.709 119.596 186.602 179.588 190.416 182.173C194.036 184.436 199.014 184.306 202.311 182.173C206.19 179.652 297.018 119.595 297.018 56.436C297.082 25.341 271.87 0 240.711 0ZM117.559 56.372C117.559 37.301 133.074 21.786 152.21 21.786C168.307 21.786 182.206 32.711 185.891 48.291C189.964 61.026 204.768 58.053 207.16 48.291C210.845 32.711 224.679 21.786 240.841 21.786C259.912 21.786 275.427 37.301 275.427 56.372C275.427 95.677 223.128 140.93 196.558 159.742C169.858 140.929 117.559 95.806 117.559 56.372Z" fill="#343779" fill-rule="nonzero" opacity="1" stroke="none" vectornator:layerName="path"/>
<path d="M352.808 87.79C330.764 87.79 312.921 105.697 312.921 127.677L312.921 168.986C310.852 168.598 308.59 168.469 306.327 168.469C284.929 168.469 267.539 185.859 267.539 207.257L267.539 246.368L231.596 285.932C220.929 297.698 214.982 312.954 214.982 328.922L214.982 360.469C214.982 378.182 229.334 392.534 247.047 392.534L296.049 392.534C313.762 392.534 328.114 378.182 328.114 360.469L328.114 347.54C328.114 344.89 329.148 342.368 330.958 340.429L383.71 285.092C389.399 279.08 392.567 271.258 392.567 262.918L392.567 127.678C392.695 105.632 374.788 87.79 352.808 87.79ZM306.456 360.469C306.456 366.093 301.801 370.748 296.177 370.748L247.175 370.748C241.551 370.748 236.896 366.093 236.896 360.469L236.896 328.857C236.896 318.32 240.775 308.299 247.821 300.607L286.544 258.005C288.419 256.001 289.388 253.35 289.388 250.635L289.388 207.257C289.388 197.883 297.016 190.255 306.39 190.255C315.764 190.255 323.392 197.883 323.392 207.257L323.392 251.928C323.392 257.94 328.24 262.853 334.317 262.853C340.329 262.853 345.242 258.005 345.242 251.928L345.242 207.257C345.242 196.978 341.234 187.734 334.705 180.752L334.705 127.742C334.705 117.786 342.85 109.641 352.806 109.641C362.762 109.641 370.907 117.786 370.907 127.742L370.907 263.112C370.907 265.763 369.873 268.284 368.063 270.223L315.182 325.56C309.493 331.572 306.325 339.394 306.325 347.734L306.325 360.469L306.456 360.469Z" fill="#343779" fill-rule="nonzero" opacity="1" stroke="none" vectornator:layerName="path"/>
<path d="M161.196 285.931L125.317 246.432L125.317 207.321C125.317 185.923 107.927 168.533 86.529 168.533C84.266 168.533 82.133 168.662 79.935 169.05L79.935 127.741C79.935 105.697 62.028 87.854 40.048 87.854C18.004 87.79 0.097 105.632 0.097 127.677L0.097 263.047C0.097 271.322 3.265 279.209 8.954 285.221L61.706 340.558C63.581 342.497 64.55 344.954 64.55 347.669L64.55 360.598C64.55 378.311 78.902 392.663 96.615 392.663L145.617 392.663C163.33 392.663 177.682 378.311 177.682 360.598L177.682 328.986C177.81 312.954 171.862 297.697 161.196 285.931ZM155.959 360.469C155.959 366.093 151.304 370.748 145.68 370.748L96.743 370.748C91.119 370.748 86.464 366.093 86.464 360.469L86.464 347.54C86.464 339.265 83.296 331.378 77.607 325.366L24.855 270.029C22.98 268.09 22.011 265.633 22.011 262.918L22.011 127.678C22.011 117.722 30.156 109.577 40.112 109.577C50.068 109.577 58.213 117.722 58.213 127.678L58.213 180.817C51.748 187.799 47.676 197.108 47.676 207.322L47.676 251.993C47.676 258.005 52.524 262.918 58.601 262.918C64.678 262.918 69.526 258.07 69.526 251.993L69.526 207.322C69.526 197.948 77.154 190.32 86.528 190.32C95.902 190.32 103.53 197.948 103.53 207.322L103.53 250.7C103.53 253.415 104.564 256.001 106.374 258.07L145.097 300.672C152.143 308.43 156.022 318.45 156.022 328.922L156.022 360.469C156.022 360.469 155.959 360.469 155.959 360.469Z" fill="#343779" fill-rule="nonzero" opacity="1" stroke="none" vectornator:layerName="path"/>
</g>
</svg>
