<?xml version="1.0" encoding="UTF-8" standalone="no"?>
<!DOCTYPE svg PUBLIC "-//W3C//DTD SVG 1.1//EN" "http://www.w3.org/Graphics/SVG/1.1/DTD/svg11.dtd">
<!-- Created with Vectornator (http://vectornator.io/) -->
<svg height="100%" stroke-miterlimit="10" style="fill-rule:nonzero;clip-rule:evenodd;stroke-linecap:round;stroke-linejoin:round;" version="1.1" viewBox="0 0 502 502" width="100%" xml:space="preserve" xmlns="http://www.w3.org/2000/svg" xmlns:vectornator="http://vectornator.io" xmlns:xlink="http://www.w3.org/1999/xlink">
<defs/>
<g id="Untitled" vectornator:layerName="Untitled">
<g opacity="1" vectornator:layerName="g">
<path d="M363.05 97.025C368.59 101.144 373.963 105.617 379.019 110.321C380.945 112.113 383.389 113 385.828 113C388.508 113 391.182 111.929 393.152 109.812C396.914 105.769 396.686 99.441 392.642 95.679C387.051 90.477 381.109 85.53 374.981 80.974C370.548 77.679 364.284 78.6 360.99 83.034C357.695 87.466 358.617 93.73 363.05 97.025Z" fill="#343779" fill-rule="nonzero" opacity="1" stroke="none" vectornator:layerName="path"/>
<path d="M88.349 215.226C59.278 215.226 35.628 238.877 35.628 267.947C35.628 297.018 59.278 320.669 88.349 320.669C117.42 320.669 141.07 297.018 141.07 267.947C141.07 238.876 117.42 215.226 88.349 215.226ZM88.349 300.668C70.307 300.668 55.628 285.989 55.628 267.946C55.628 249.904 70.307 235.225 88.349 235.225C106.391 235.225 121.07 249.904 121.07 267.946C121.07 285.99 106.392 300.668 88.349 300.668Z" fill="#343779" fill-rule="nonzero" opacity="1" stroke="none" vectornator:layerName="path"/>
<path d="M304.018 85.999C304.018 56.928 280.367 33.278 251.297 33.278C222.226 33.278 198.575 56.928 198.575 85.999C198.575 115.07 222.227 138.72 251.297 138.72C280.367 138.72 304.018 115.07 304.018 85.999ZM218.575 85.999C218.575 67.957 233.254 53.278 251.297 53.278C269.339 53.278 284.018 67.957 284.018 85.999C284.018 104.041 269.339 118.72 251.297 118.72C233.254 118.72 218.575 104.041 218.575 85.999Z" fill="#343779" fill-rule="nonzero" opacity="1" stroke="none" vectornator:layerName="path"/>
<path d="M457.038 276.589C458.334 267.155 459 257.566 459 248C459 202.003 444.289 158.411 416.457 121.935C413.106 117.544 406.831 116.701 402.441 120.051C398.05 123.402 397.207 129.676 400.557 134.067C425.707 167.027 439 206.425 439 248C439 254.782 438.631 261.575 437.91 268.303C430.211 266.035 422.075 264.796 413.651 264.796C366.231 264.796 327.652 303.375 327.652 350.795C327.652 364.546 334.393 384.132 347.728 409.234C318.573 426.765 285.304 436 251 436C201.33 436 155.011 417.073 119.72 382.557C124.489 375.566 129.632 367.81 134.801 359.633C161.042 318.123 174.348 287.276 174.348 267.947C174.348 220.527 135.769 181.948 88.349 181.948C83.64 181.948 79.024 182.344 74.518 183.075C90.818 138.879 123.524 102.049 165.489 80.547C165.375 82.352 165.298 84.166 165.298 85.999C165.298 105.328 178.604 136.175 204.845 177.685C223.866 207.773 242.571 232.257 243.358 233.285C245.25 235.756 248.185 237.204 251.297 237.204C254.409 237.204 257.344 235.755 259.236 233.284C260.023 232.257 278.728 207.773 297.749 177.685C323.991 136.175 337.296 105.328 337.296 85.999C337.296 38.579 298.717 0 251.297 0C214.384 0 182.836 23.381 170.664 56.107C112.775 80.38 68.422 130.189 51.092 190.445C22.277 204.352 2.35 233.866 2.35 267.947C2.35 287.276 15.656 318.123 41.897 359.633C60.918 389.721 79.623 414.205 80.41 415.233C82.302 417.704 85.237 419.152 88.349 419.152C91.461 419.152 94.396 417.703 96.288 415.233C96.671 414.733 101.292 408.683 108.119 399.152C125.488 415.602 145.343 428.809 167.298 438.471C193.731 450.102 221.893 456 251 456C288.754 456 325.383 445.883 357.53 426.674C360.531 431.759 363.75 437.025 367.199 442.481C386.22 472.569 404.925 497.053 405.712 498.081C407.604 500.552 410.539 502 413.651 502C416.763 502 419.698 500.551 421.59 498.081C422.377 497.053 441.082 472.57 460.103 442.481C486.344 400.971 499.65 370.124 499.65 350.795C499.65 319.193 482.504 291.536 457.038 276.589ZM251.297 20C287.689 20 317.296 49.607 317.296 85.999C317.296 114.119 275.11 177.812 251.297 210.475C227.484 177.812 185.298 114.119 185.298 85.999C185.298 49.607 214.905 20 251.297 20ZM88.349 392.422C64.536 359.759 22.35 296.066 22.35 267.947C22.35 231.555 51.957 201.948 88.349 201.948C124.741 201.948 154.348 231.555 154.348 267.947C154.348 296.066 112.162 359.759 88.349 392.422ZM413.651 475.271C389.838 442.608 347.652 378.915 347.652 350.795C347.652 314.403 377.259 284.796 413.651 284.796C450.043 284.796 479.65 314.403 479.65 350.795C479.65 378.915 437.464 442.607 413.651 475.271Z" fill="#343779" fill-rule="nonzero" opacity="1" stroke="none" vectornator:layerName="path"/>
<path d="M413.651 298.074C384.58 298.074 360.93 321.724 360.93 350.795C360.93 379.866 384.58 403.516 413.651 403.516C442.722 403.516 466.372 379.866 466.372 350.795C466.372 321.724 442.722 298.074 413.651 298.074ZM413.651 383.516C395.609 383.516 380.93 368.837 380.93 350.795C380.93 332.753 395.609 318.074 413.651 318.074C431.693 318.074 446.372 332.753 446.372 350.795C446.372 368.837 431.693 383.516 413.651 383.516Z" fill="#343779" fill-rule="nonzero" opacity="1" stroke="none" vectornator:layerName="path"/>
</g>
</g>
</svg>
