<?xml version="1.0" encoding="UTF-8" standalone="no"?>
<!DOCTYPE svg PUBLIC "-//W3C//DTD SVG 1.1//EN" "http://www.w3.org/Graphics/SVG/1.1/DTD/svg11.dtd">
<!-- Created with Vectornator (http://vectornator.io/) -->
<svg height="100%" stroke-miterlimit="10" style="fill-rule:nonzero;clip-rule:evenodd;stroke-linecap:round;stroke-linejoin:round;" version="1.1" viewBox="0 0 433.878 433.879" width="100%" xml:space="preserve" xmlns="http://www.w3.org/2000/svg" xmlns:vectornator="http://vectornator.io" xmlns:xlink="http://www.w3.org/1999/xlink">
<defs/>
<clipPath id="ArtboardFrame">
<rect height="433.879" width="433.878" x="0" y="0"/>
</clipPath>
<g clip-path="url(#ArtboardFrame)" id="Untitled" vectornator:layerName="Untitled">
<g opacity="1" vectornator:layerName="g">
<path d="M3.542 320.51C3.567 321.8 3.74 323.059 4.065 324.4C3.699 329.296 5.212 334.277 8.209 337.918C11.271 341.635 15.74 343.844 20.797 344.134C80.367 347.587 138.88 363.349 195.469 378.593C260.066 395.989 326.866 413.982 395.993 413.987C395.998 413.987 396.008 413.987 396.018 413.987C401.39 413.987 406.757 413.875 412.165 413.657C417.395 413.443 421.92 411.199 425.033 407.304C429.856 404.226 432.594 399.087 432.603 393.019C432.644 365.847 432.949 338.212 433.238 311.482C433.868 253.604 434.523 193.757 432.598 134.848C432.395 128.572 429.287 123.318 424.042 120.34C419.964 116.882 414.987 115.427 409.311 116.43C396.082 118.768 382.423 119.959 368.707 119.959C364.827 119.959 360.963 119.845 357.103 119.665C357.56 120.922 357.779 122.285 357.636 123.704C357.596 124.1 357.525 124.474 357.484 124.865C357.292 126.622 357.032 128.344 356.778 130.065C356.067 134.874 355.143 139.579 353.991 144.202C353.559 145.934 353.112 147.66 352.625 149.376C352.138 151.107 351.599 152.839 351.056 154.561C366.884 155.361 382.433 154.95 397.947 153.291C399.226 206.32 398.663 260.17 398.114 312.306C397.881 334.482 397.652 356.652 397.551 378.827C397.059 378.827 396.571 378.827 396.083 378.827C328.485 378.827 262.329 361.034 198.352 343.83C146.552 329.895 93.04 315.505 38.432 310.335C38.071 294.67 37.624 279.004 37.178 263.334C35.406 201.167 33.568 136.928 37.635 73.806C79.031 74.406 117.425 84.83 155.937 98.619C155.856 96.763 155.739 94.912 155.759 93.066C155.784 91.255 155.901 89.458 156.018 87.653C156.308 83.035 156.841 78.439 157.628 73.874C157.922 72.143 158.248 70.416 158.603 68.689C158.73 68.06 158.826 67.419 158.958 66.793C159.207 65.628 159.572 64.597 160.029 63.703C117.508 49.084 73.548 37.499 27.155 38.664C24.047 38.748 21.194 39.538 18.67 41.03C11.515 42.297 4.355 47.67 3.573 57.345C-1.942 125.672 0.079 195.037 2.034 262.127C2.583 281.592 3.152 301.051 3.542 320.51Z" fill="#f28b82" fill-rule="nonzero" opacity="1" stroke="none" vectornator:layerName="path"/>
<path d="M269.243 140.221C269.354 140.254 269.462 140.279 269.573 140.31C269.552 139.952 269.548 139.594 269.527 139.233C269.456 139.561 269.324 139.896 269.243 140.221Z" fill="#f28b82" fill-rule="nonzero" opacity="1" stroke="none" vectornator:layerName="path"/>
<path d="M205.768 117.063C205.489 117.197 205.205 117.264 204.915 117.37C205.194 117.476 205.463 117.589 205.738 117.69C205.748 117.482 205.758 117.271 205.768 117.063Z" fill="#f28b82" fill-rule="nonzero" opacity="1" stroke="none" vectornator:layerName="path"/>
<path d="M172.71 104.817C173.538 111.967 174.914 118.685 176.356 124.616C176.62 125.708 176.884 126.78 177.153 127.815C188.451 171.775 215.41 219.29 251.119 258.182C253.171 260.416 255.861 261.645 258.7 261.645C261.493 261.645 264.221 260.467 266.307 258.385C266.453 258.283 266.601 258.182 266.748 258.075C268.267 257.572 269.668 256.719 270.866 255.561C293.107 234.03 311.612 205.614 324.17 175.004C327.13 167.775 329.796 160.438 332.061 153.024C332.584 151.328 333.046 149.627 333.524 147.928C334.002 146.227 334.504 144.531 334.951 142.824C336.18 138.074 337.211 133.31 338.125 128.542C338.455 126.831 338.801 125.12 339.09 123.413C339.379 121.694 339.603 119.978 339.847 118.256C340.106 116.431 340.406 114.605 340.618 112.784C340.826 111.012 340.892 109.296 341.024 107.554C342.868 83.025 337.404 61.692 324.896 45.661C311.556 28.558 289.102 19.89 258.167 19.89C254.471 19.89 250.824 20.014 247.595 20.223L243.334 20.223C242.004 20.223 240.694 20.477 239.435 20.977C215.518 21.601 194.652 33.123 182.734 51.78C180.957 54.563 179.362 57.495 178.006 60.583C176.793 63.345 175.802 66.148 174.985 68.977C174.498 70.656 174.066 72.341 173.705 74.038C173.34 75.769 173.05 77.506 172.801 79.248C172.126 84.016 171.887 88.779 171.958 93.454C171.988 95.346 172.07 97.229 172.191 99.085C172.33 101.014 172.492 102.934 172.71 104.817ZM193.937 87.021C194.059 85.209 194.277 83.444 194.526 81.692C194.582 81.314 194.597 80.913 194.658 80.54C194.876 79.166 195.15 77.823 195.486 76.503C196.339 73.134 197.603 69.967 199.162 66.992C206.911 52.21 222.831 42.684 241.751 42.684L243.493 42.704C244.848 42.704 246.143 42.465 247.357 41.993L249.723 41.993C250.368 41.993 251.018 41.93 251.688 41.8C253.857 41.706 256.045 41.66 258.229 41.66C281.659 41.66 298.198 47.743 308.79 60.258C318.124 71.287 321.439 88.633 318.824 111.733C318.703 112.836 318.581 113.932 318.424 115.054C318.318 115.862 318.261 116.613 318.14 117.43C317.997 118.357 317.815 119.286 317.662 120.213C317.378 121.919 317.108 123.623 316.783 125.334C315.848 130.138 314.701 134.954 313.401 139.763C312.944 141.454 312.452 143.145 311.949 144.833C311.451 146.511 310.964 148.192 310.421 149.868C305.206 165.98 298.035 181.819 289.358 196.53C280.898 210.867 271.016 224.129 260.098 235.488C236.608 208.021 217.286 175.283 204.057 140.471C200.777 131.833 198.309 123.746 196.593 116.124C196.42 115.37 196.293 114.637 196.136 113.895C195.715 111.861 195.308 109.833 195.004 107.862C194.689 105.864 194.476 103.924 194.278 101.997C193.749 96.776 193.611 91.78 193.937 87.021Z" fill="#f28b82" fill-rule="nonzero" opacity="1" stroke="none" vectornator:layerName="path"/>
<path d="M216.518 116.354C218.711 119.48 221.291 122.313 224.125 124.893C233.382 133.317 245.549 138.657 257.645 139.55C258.777 139.634 259.915 139.675 261.047 139.675L261.047 139.675C262.829 139.675 264.596 139.55 266.359 139.363C270.009 138.969 273.589 138.152 277.068 137.009C279.826 136.103 282.502 134.986 285.081 133.671C290.946 130.675 296.253 126.689 300.655 121.986C301.996 120.556 303.27 119.079 304.438 117.53C305.566 116.027 306.591 114.468 307.526 112.866C309.872 108.862 311.583 104.571 312.547 100.12C312.766 99.122 312.994 98.12 313.137 97.104C314.746 85.379 311.568 74.558 303.93 65.804C293.54 53.891 275.509 46.494 256.858 46.494L255.568 46.517C233.042 45.59 215.721 57.851 210.135 77.284C209.739 78.68 209.399 80.117 209.119 81.588C208.794 83.304 208.54 85.056 208.393 86.867C208.372 87.096 208.332 87.308 208.317 87.537C208.21 89.175 208.21 90.782 208.271 92.374C208.51 98.384 209.998 104 212.389 109.139C213.568 111.66 214.929 114.087 216.518 116.354ZM233.057 95.936C232.62 94.027 232.376 92.092 232.351 90.152C232.351 90.007 232.33 89.858 232.33 89.71C232.336 88.136 232.549 86.554 232.858 84.995C234.499 76.872 240.551 69.525 253.799 69.525L254.53 69.52L254.881 69.55L256.622 69.52C265.91 69.52 279.234 72.369 286.242 80.397C289.762 84.434 291.087 89.169 290.3 94.875C289.827 98.303 288.401 101.39 286.314 104.094C285.537 105.092 284.664 106.034 283.724 106.923C282.17 108.396 280.423 109.721 278.514 110.876C276.316 112.207 273.929 113.324 271.43 114.197C267.099 115.716 262.468 116.528 258.05 116.528C247.188 116.48 239.307 110.287 235.311 102.249C234.306 100.24 233.56 98.114 233.057 95.936Z" fill="#f28b82" fill-rule="nonzero" opacity="1" stroke="none" vectornator:layerName="path"/>
</g>
</g>
</svg>
