<?xml version="1.0" encoding="UTF-8" standalone="no"?>
<!DOCTYPE svg PUBLIC "-//W3C//DTD SVG 1.1//EN" "http://www.w3.org/Graphics/SVG/1.1/DTD/svg11.dtd">
<!-- Created with Vectornator (http://vectornator.io/) -->
<svg height="100%" stroke-miterlimit="10" style="fill-rule:nonzero;clip-rule:evenodd;stroke-linecap:round;stroke-linejoin:round;" version="1.1" viewBox="0 0 478.583 478.584" width="100%" xml:space="preserve" xmlns="http://www.w3.org/2000/svg" xmlns:vectornator="http://vectornator.io" xmlns:xlink="http://www.w3.org/1999/xlink">
<defs/>
<g id="Untitled" vectornator:layerName="Untitled">
<g opacity="1" vectornator:layerName="g">
<path d="M361.292 186.499C338.08 147.416 298.909 132.357 255.599 142.023C239.637 145.585 246.398 170.056 262.348 166.494C303.84 157.232 336.273 181.304 349.328 220.666C359.256 250.588 344.301 281.157 323.953 302.525C284.127 344.358 217.067 347.927 174.714 308.746C145.132 281.371 135.197 236.515 145.087 198.303C156.489 154.229 196.342 137.304 238.674 142.836C254.862 144.951 254.659 119.546 238.674 117.454C104.189 99.879 79.668 278.39 177.19 342.651C240.362 384.281 324.964 354.707 362.724 293.589C383.438 260.054 380.934 219.6 361.292 186.499Z" fill="#f4bc74" fill-rule="nonzero" opacity="1" stroke="none" vectornator:layerName="path"/>
<path d="M99.479 281.727C98.532 275.044 93.307 268.28 85.154 268.28C83.686 268.28 82.168 268.504 80.645 268.951C60.366 274.81 42.431 281.067 25.828 288.074C17.279 291.679 14.852 300.17 16.228 306.985C17.626 313.911 22.687 318.573 28.824 318.573C28.824 318.573 28.824 318.573 28.829 318.573C30.69 318.573 32.63 318.146 34.59 317.324C50.969 310.407 68.712 304.222 88.836 298.403C97.466 295.904 100.404 288.226 99.479 281.727Z" fill="#f4bc74" fill-rule="nonzero" opacity="1" stroke="none" vectornator:layerName="path"/>
<path d="M38.859 78.668C62.784 94.519 88.628 110.575 122.671 130.73C125.167 132.208 127.762 132.954 130.377 132.959C137.017 132.959 143.003 128.046 144.925 121.016C146.761 114.313 144.156 107.928 138.113 104.355C104.124 84.229 78.342 68.213 54.532 52.43C51.948 50.719 49.243 49.846 46.504 49.846C40.337 49.846 34.627 54.515 32.611 61.208C30.551 68.055 32.943 74.748 38.859 78.668Z" fill="#f4bc74" fill-rule="nonzero" opacity="1" stroke="none" vectornator:layerName="path"/>
<path d="M255.091 381.727C250.76 381.727 246.758 383.347 244.118 386.17C241.587 388.882 240.386 392.527 240.665 396.707C241.904 415.312 243.151 433.918 244.471 452.509C245.159 462.116 253.121 467.134 260.642 467.134C264.978 467.134 268.975 465.509 271.605 462.685C274.129 459.974 275.312 456.328 275.012 452.149C273.692 433.553 272.453 414.962 271.214 396.357C270.575 386.749 262.618 381.727 255.091 381.727Z" fill="#f4bc74" fill-rule="nonzero" opacity="1" stroke="none" vectornator:layerName="path"/>
<path d="M143.788 348.623C138.578 348.623 134.112 351.162 131.2 355.773C110.073 389.257 88.56 422.253 66.55 455.92C63.503 460.582 63.171 465.629 65.608 470.144C68.337 475.197 74.177 478.583 80.146 478.583C80.151 478.583 80.151 478.583 80.151 478.583C85.346 478.583 89.835 476.09 92.797 471.561C114.762 437.975 136.237 405.04 157.488 371.347C160.464 366.639 160.728 361.532 158.232 357.001C155.472 351.995 149.658 348.623 143.788 348.623Z" fill="#f4bc74" fill-rule="nonzero" opacity="1" stroke="none" vectornator:layerName="path"/>
<path d="M348.958 127.262C354.148 127.262 358.643 124.797 361.628 120.321C369.443 108.596 376.983 97.036 383.342 84.551C385.896 79.536 385.734 74.223 382.895 69.592C379.899 64.707 374.425 61.551 368.946 61.551C363.771 61.551 359.348 64.407 356.815 69.389C350.594 81.592 343.14 93.027 335.406 104.633C332.324 109.261 331.953 114.283 334.365 118.788C337.071 123.85 342.936 127.257 348.958 127.262Z" fill="#f4bc74" fill-rule="nonzero" opacity="1" stroke="none" vectornator:layerName="path"/>
<path d="M449.136 389.334C426.717 371.484 407.293 357.51 388.002 345.343C385.453 343.729 382.797 342.916 380.101 342.916C373.728 342.916 367.894 347.694 365.918 354.534C363.958 361.318 366.451 367.864 372.423 371.637C390.785 383.225 408.954 396.204 427.961 411.337C430.886 413.662 434.309 414.892 437.857 414.892C437.863 414.892 437.857 414.892 437.863 414.892C444.83 414.892 451.517 410.23 453.757 403.822C455.641 398.448 453.951 393.178 449.136 389.334Z" fill="#f4bc74" fill-rule="nonzero" opacity="1" stroke="none" vectornator:layerName="path"/>
<path d="M239.474 99.317C243.826 99.317 247.794 97.69 250.354 94.856C252.812 92.137 253.883 88.491 253.457 84.317C251.05 60.725 249.634 36.98 248.39 14.685C247.85 5.045 239.941 0 232.408 0C228.082 0 224.068 1.617 221.399 4.44C218.842 7.149 217.608 10.791 217.837 14.969C219.087 37.37 220.511 61.217 222.922 84.84C223.89 94.341 231.982 99.317 239.474 99.317Z" fill="#f4bc74" fill-rule="nonzero" opacity="1" stroke="none" vectornator:layerName="path"/>
<path d="M447.095 205.006C438.224 206.184 412.016 206.247 406.852 206.252C397.092 206.252 391.984 213.943 391.984 221.54C391.989 229.126 397.092 236.817 406.847 236.817L406.852 236.817C412.078 236.817 438.599 236.744 447.781 235.527C456.85 234.321 462.716 228.331 462.716 220.265C462.715 212.717 455.606 203.83 447.095 205.006Z" fill="#f4bc74" fill-rule="nonzero" opacity="1" stroke="none" vectornator:layerName="path"/>
</g>
</g>
</svg>
