<?xml version="1.0" encoding="UTF-8" standalone="no"?>
<!DOCTYPE svg PUBLIC "-//W3C//DTD SVG 1.1//EN" "http://www.w3.org/Graphics/SVG/1.1/DTD/svg11.dtd">
<!-- Created with Vectornator (http://vectornator.io/) -->
<svg height="100%" stroke-miterlimit="10" style="fill-rule:nonzero;clip-rule:evenodd;stroke-linecap:round;stroke-linejoin:round;" version="1.1" viewBox="0 0 1692 134" width="100%" xml:space="preserve" xmlns="http://www.w3.org/2000/svg" xmlns:vectornator="http://vectornator.io" xmlns:xlink="http://www.w3.org/1999/xlink">
<defs/>
<clipPath id="ArtboardFrame">
<rect height="134" width="1692" x="0" y="0"/>
</clipPath>
<g clip-path="url(#ArtboardFrame)" id="Layer-1-copy" vectornator:layerName="Layer 1 copy">
<path d="M1692 54.5901C1692 54.5901 1648.43 78.7898 1608.44 80.4782C1567.86 82.1665 1533.24 80.4782 1483.71 72.0364C1416.27 60.7807 1286.16 15.195 1216.93 39.9577C1147.7 64.7202 1144.71 65.8458 1109.5 81.6037C1070.11 99.6128 990.133 135.631 891.06 133.943C785.422 132.254 593.841 40.5205 515.06 45.0227C506.705 45.5855 475.67 49.525 452.394 56.2784C429.714 63.0318 396.292 77.6642 350.933 82.7293C331.835 84.9804 301.397 88.9199 266.184 87.7943C257.232 87.2316 228.584 85.5432 194.565 78.7898C160.546 72.0364 128.914 61.3435 100.267 57.9668C38.794 51.7762 2.27374e-13 60.7807 2.27374e-13 60.7807L2.27374e-13-1.98952e-13L1692-1.98952e-13L1692 54.5901ZM1556.52 63.5946C1552.34 57.9668 1544.58 61.3435 1530.86 61.3435C1517.13 61.3435 1494.45 54.5901 1496.24 55.1529C1498.03 55.7156 1514.74 63.5946 1532.05 65.8458C1549.96 68.6597 1560.1 69.2225 1556.52 63.5946ZM1446.7 48.3995C1446.7 48.3995 1432.38 47.2739 1413.28 43.3344C1394.18 38.8321 1351.81 27.576 1323.16 23.637C1274.22 17.446 1228.86 23.637 1233.04 24.2C1237.82 24.763 1290.34 20.823 1338.08 30.39C1357.78 34.3298 1393.59 42.7716 1412.09 45.5855C1431.78 48.9622 1446.7 48.3995 1446.7 48.3995ZM1105.32 47.8367C1115.47 43.8972 1027.94 74.2875 996.908 82.1665C984.375 85.5432 957.905 91.1711 935.225 93.4222C911.949 95.6733 882.108 95.6733 882.705 96.2361C882.705 97.3617 917.321 100.738 949.549 96.2361C981.778 91.7338 980.584 90.0455 994.908 87.2316C1017.59 82.7293 1095.18 51.7762 1105.32 47.8367ZM1188.28 38.8321C1189.47 38.8321 1183.51 36.581 1159.63 45.0227C1135.76 53.4645 1119.64 64.7202 1118.45 65.8458C1117.26 66.4085 1139.34 55.7156 1157.84 48.9622C1175.75 42.2088 1187.68 38.8321 1188.28 38.8321ZM1689.02 33.767C1688.42 34.3298 1677.68 39.9577 1660.37 47.8367C1643.06 55.7156 1619.19 63.5946 1620.38 63.0318C1621.57 63.0318 1641.27 59.6551 1664.55 48.9622C1687.82 38.2693 1689.61 33.204 1689.02 33.767ZM186.806 65.283C187.403 64.1574 175.467 64.1574 159.949 58.5296C144.432 52.9017 127.721 49.525 113.397 47.2739C89.524 42.7716 43.568 47.8367 45.956 48.3995C47.746 48.9622 94.895 46.7111 120.559 52.3389C133.689 55.1529 134.883 55.1529 154.578 61.3435C174.273 67.5341 186.21 66.9713 186.806 65.283ZM435.683 51.7762C438.07 51.2134 456.571 42.7716 485.816 37.1438C515.06 30.953 538.933 34.3298 538.933 32.641C538.933 30.953 532.965 27.576 501.93 30.953C470.895 34.3298 433.295 52.3389 435.683 51.7762ZM427.327 37.7065C428.521 38.2693 447.619 30.39 461.346 28.139C475.073 26.451 472.686 25.325 472.686 24.763C472.686 24.2 466.121 23.637 456.571 25.888C446.425 28.702 426.133 37.1438 427.327 37.7065ZM558.629 24.763C559.225 25.888 579.517 29.265 592.051 34.8926C604.584 40.5205 602.794 38.2693 603.391 37.7065C603.987 37.1438 598.616 33.204 589.067 30.39C579.517 27.014 558.032 23.637 558.629 24.763ZM390.324 62.4691C389.727 64.1574 392.114 65.283 401.664 61.3435C411.213 57.404 417.181 54.0273 414.794 54.5901C412.406 55.1529 409.422 56.8412 399.873 59.0924C389.727 61.3435 390.921 60.7807 390.324 62.4691ZM205.905 69.7852C204.711 69.7852 218.438 74.2875 225.6 74.8503C232.762 75.4131 237.537 75.4131 237.537 73.7247C237.537 72.0364 236.94 70.9108 227.987 71.4736C218.438 72.0364 207.098 69.7852 205.905 69.7852ZM908.368 118.747C907.771 119.31 894.044 117.059 863.606 117.059C833.765 117.059 782.438 103.552 760.952 97.3617C739.467 91.1711 820.635 119.31 859.429 120.436C898.222 121.561 908.965 118.185 908.368 118.747Z" fill="#ffffff" fill-rule="nonzero" opacity="1" stroke="none" vectornator:layerName="path"/>
</g>
</svg>
