<?xml version="1.0" encoding="UTF-8" standalone="no"?>
<!DOCTYPE svg PUBLIC "-//W3C//DTD SVG 1.1//EN" "http://www.w3.org/Graphics/SVG/1.1/DTD/svg11.dtd">
<!-- Created with Vectornator (http://vectornator.io/) -->
<svg height="100%" stroke-miterlimit="10" style="fill-rule:nonzero;clip-rule:evenodd;stroke-linecap:round;stroke-linejoin:round;" version="1.1" viewBox="0 0 1692 134" width="100%" xml:space="preserve" xmlns="http://www.w3.org/2000/svg" xmlns:vectornator="http://vectornator.io" xmlns:xlink="http://www.w3.org/1999/xlink">
<defs/>
<clipPath id="ArtboardFrame">
<rect height="134" width="1692" x="0" y="0"/>
</clipPath>
<g clip-path="url(#ArtboardFrame)" id="Layer-1" vectornator:layerName="Layer 1">
<path d="M1692 80.4099C1692 80.4099 1648.43 56.2102 1608.44 54.5218C1567.86 52.8335 1533.24 54.5218 1483.71 62.9636C1416.27 74.2193 1286.16 119.805 1216.93 95.0423C1147.7 70.2798 1144.71 69.1542 1109.5 53.3963C1070.11 35.3872 990.133-0.631013 891.06 1.05734C785.422 2.7457 593.841 94.4795 515.06 89.9773C506.705 89.4145 475.67 85.475 452.394 78.7216C429.714 71.9682 396.292 57.3358 350.933 52.2707C331.835 50.0196 301.397 46.0801 266.184 47.2057C257.232 47.7684 228.584 49.4568 194.565 56.2102C160.546 62.9636 128.914 73.6565 100.267 77.0332C38.794 83.2238 1.13687e-13 74.2193 1.13687e-13 74.2193L1.13687e-13 135L1692 135L1692 80.4099ZM1556.52 71.4054C1552.34 77.0332 1544.58 73.6565 1530.86 73.6565C1517.13 73.6565 1494.45 80.4099 1496.24 79.8471C1498.03 79.2844 1514.74 71.4054 1532.05 69.1542C1549.96 66.3403 1560.1 65.7775 1556.52 71.4054ZM1446.7 86.6005C1446.7 86.6005 1432.38 87.7261 1413.28 91.6656C1394.18 96.1679 1351.81 107.424 1323.16 111.363C1274.22 117.554 1228.86 111.363 1233.04 110.8C1237.82 110.237 1290.34 114.177 1338.08 104.61C1357.78 100.67 1393.59 92.2284 1412.09 89.4145C1431.78 86.0378 1446.7 86.6005 1446.7 86.6005ZM1105.32 87.1633C1115.47 91.1028 1027.94 60.7125 996.908 52.8335C984.375 49.4568 957.905 43.8289 935.225 41.5778C911.949 39.3267 882.108 39.3267 882.705 38.7639C882.705 37.6383 917.321 34.2616 949.549 38.7639C981.778 43.2662 980.584 44.9545 994.908 47.7684C1017.59 52.2707 1095.18 83.2238 1105.32 87.1633ZM1188.28 96.1679C1189.47 96.1679 1183.51 98.419 1159.63 89.9773C1135.76 81.5355 1119.64 70.2798 1118.45 69.1542C1117.26 68.5915 1139.34 79.2844 1157.84 86.0378C1175.75 92.7912 1187.68 96.1679 1188.28 96.1679ZM1689.02 101.233C1688.42 100.67 1677.68 95.0423 1660.37 87.1633C1643.06 79.2844 1619.19 71.4054 1620.38 71.9682C1621.57 71.9682 1641.27 75.3449 1664.55 86.0378C1687.82 96.7307 1689.61 101.796 1689.02 101.233ZM186.806 69.717C187.403 70.8426 175.467 70.8426 159.949 76.4704C144.432 82.0983 127.721 85.475 113.397 87.7261C89.524 92.2284 43.568 87.1633 45.956 86.6005C47.746 86.0378 94.895 88.2889 120.559 82.6611C133.689 79.8471 134.883 79.8471 154.578 73.6565C174.273 67.4659 186.21 68.0287 186.806 69.717ZM435.683 83.2238C438.07 83.7866 456.571 92.2284 485.816 97.8562C515.06 104.047 538.933 100.67 538.933 102.359C538.933 104.047 532.965 107.424 501.93 104.047C470.895 100.67 433.295 82.6611 435.683 83.2238ZM427.327 97.2935C428.521 96.7307 447.619 104.61 461.346 106.861C475.073 108.549 472.686 109.675 472.686 110.237C472.686 110.8 466.121 111.363 456.571 109.112C446.425 106.298 426.133 97.8562 427.327 97.2935ZM558.629 110.237C559.225 109.112 579.517 105.735 592.051 100.107C604.584 94.4795 602.794 96.7307 603.391 97.2935C603.987 97.8562 598.616 101.796 589.067 104.61C579.517 107.986 558.032 111.363 558.629 110.237ZM390.324 72.5309C389.727 70.8426 392.114 69.717 401.664 73.6565C411.213 77.596 417.181 80.9727 414.794 80.4099C412.406 79.8471 409.422 78.1588 399.873 75.9076C389.727 73.6565 390.921 74.2193 390.324 72.5309ZM205.905 65.2148C204.711 65.2148 218.438 60.7125 225.6 60.1497C232.762 59.5869 237.537 59.5869 237.537 61.2753C237.537 62.9636 236.94 64.0892 227.987 63.5264C218.438 62.9636 207.098 65.2148 205.905 65.2148ZM908.368 16.2525C907.771 15.6897 894.044 17.9409 863.606 17.9409C833.765 17.9409 782.438 31.4477 760.952 37.6383C739.467 43.8289 820.635 15.6897 859.429 14.5642C898.222 13.4386 908.965 16.8153 908.368 16.2525Z" fill="#343779" fill-rule="nonzero" opacity="1" stroke="none" vectornator:layerName="path"/>
</g>
</svg>
