<?xml version="1.0" encoding="UTF-8" standalone="no"?>
<!DOCTYPE svg PUBLIC "-//W3C//DTD SVG 1.1//EN" "http://www.w3.org/Graphics/SVG/1.1/DTD/svg11.dtd">
<!-- Created with Vectornator (http://vectornator.io/) -->
<svg height="100%" stroke-miterlimit="10" style="fill-rule:nonzero;clip-rule:evenodd;stroke-linecap:round;stroke-linejoin:round;" version="1.1" viewBox="0 0 1692 134" width="100%" xml:space="preserve" xmlns="http://www.w3.org/2000/svg" xmlns:vectornator="http://vectornator.io" xmlns:xlink="http://www.w3.org/1999/xlink">
<defs/>
<g id="Layer-1-copy" vectornator:layerName="Layer 1 copy">
<path d="M2.27374e-13 106.705C2.27374e-13 106.705 43.57 94.6052 83.56 93.761C124.14 92.9169 158.76 93.761 208.29 97.9819C275.73 103.61 405.84 126.402 475.07 114.021C544.3 101.64 547.29 101.077 582.5 93.1983C621.89 84.1937 701.867 66.1847 800.94 67.0287C906.578 67.8732 1098.16 113.74 1176.94 111.489C1185.3 111.207 1216.33 109.238 1239.61 105.861C1262.29 102.484 1295.71 95.168 1341.07 92.6355C1360.17 91.5099 1390.6 89.5402 1425.82 90.103C1434.77 90.3843 1463.42 91.2285 1497.44 94.6052C1531.45 97.9819 1563.09 103.328 1591.73 105.017C1653.21 108.112 1692 103.61 1692 103.61L1692 134L2.27374e-13 134L2.27374e-13 106.705ZM135.48 102.203C139.66 105.017 147.42 103.328 161.14 103.328C174.87 103.328 197.55 106.705 195.76 106.424C193.97 106.142 177.26 102.203 159.95 101.077C142.04 99.6703 131.9 99.3889 135.48 102.203ZM245.3 109.8C245.3 109.8 259.62 110.363 278.72 112.333C297.82 114.584 340.19 120.212 368.84 122.181C417.78 125.277 463.14 122.181 458.96 121.9C454.18 121.618 401.66 123.588 353.92 118.805C334.22 116.835 298.41 112.614 279.91 111.207C260.22 109.519 245.3 109.8 245.3 109.8ZM586.68 110.082C576.53 112.052 664.06 96.8564 695.092 92.9169C707.625 91.2285 734.095 88.4146 756.775 87.289C780.051 86.1635 809.892 86.1635 809.295 85.8821C809.295 85.3193 774.679 83.6311 742.451 85.8821C710.222 88.1332 711.416 88.9774 697.092 90.3843C674.41 92.6355 596.82 108.112 586.68 110.082ZM503.72 114.584C502.53 114.584 508.49 115.71 532.37 111.489C556.24 107.268 572.36 101.64 573.55 101.077C574.74 100.796 552.66 106.142 534.16 109.519C516.25 112.896 504.32 114.584 503.72 114.584ZM2.98 117.116C3.58 116.835 14.32 114.021 31.63 110.082C48.94 106.142 72.81 102.203 71.62 102.484C70.43 102.484 50.73 104.173 27.45 109.519C4.18 114.865 2.39 117.398 2.98 117.116ZM1505.19 101.359C1504.6 101.921 1516.53 101.921 1532.05 104.735C1547.57 107.549 1564.28 109.238 1578.6 110.363C1602.48 112.614 1648.43 110.082 1646.04 109.8C1644.25 109.519 1597.11 110.645 1571.44 107.831C1558.31 106.424 1557.12 106.424 1537.42 103.328C1517.73 100.233 1505.79 100.514 1505.19 101.359ZM1256.32 108.112C1253.93 108.393 1235.43 112.614 1206.18 115.428C1176.94 118.523 1153.07 116.835 1153.07 117.679C1153.07 118.523 1159.04 120.212 1190.07 118.523C1221.11 116.835 1258.71 107.831 1256.32 108.112ZM1264.67 115.147C1263.48 114.865 1244.38 118.805 1230.65 119.93C1216.93 120.774 1219.31 121.337 1219.31 121.618C1219.31 121.9 1225.88 122.181 1235.43 121.056C1245.58 119.649 1265.87 115.428 1264.67 115.147ZM1133.37 121.618C1132.78 121.056 1112.48 119.367 1099.95 116.554C1087.42 113.74 1089.21 114.865 1088.61 115.147C1088.01 115.428 1093.38 117.398 1102.93 118.805C1112.48 120.493 1133.97 122.181 1133.37 121.618ZM1301.68 102.766C1302.27 101.921 1299.89 101.359 1290.34 103.328C1280.79 105.298 1274.82 106.986 1277.21 106.705C1279.59 106.424 1282.58 105.58 1292.13 104.454C1302.27 103.328 1301.08 103.61 1301.68 102.766ZM1486.1 99.1075C1487.29 99.1075 1473.56 96.8564 1466.4 96.575C1459.24 96.2936 1454.46 96.2936 1454.46 97.1378C1454.46 97.9819 1455.06 98.5447 1464.01 98.2633C1473.56 97.9819 1484.9 99.1075 1486.1 99.1075ZM783.632 74.6266C784.229 74.3451 797.956 75.4706 828.394 75.4706C858.235 75.4706 909.562 82.2241 931.048 85.3193C952.533 88.4146 871.365 74.3451 832.571 73.7821C793.778 73.2196 783.035 74.9076 783.632 74.6266Z" fill="#ffffff" fill-rule="nonzero" opacity="1" stroke="none" vectornator:layerName="path"/>
</g>
</svg>
