<?xml version="1.0" encoding="UTF-8" standalone="no"?>
<!DOCTYPE svg PUBLIC "-//W3C//DTD SVG 1.1//EN" "http://www.w3.org/Graphics/SVG/1.1/DTD/svg11.dtd">
<!-- Created with Vectornator (http://vectornator.io/) -->
<svg height="100%" stroke-miterlimit="10" style="fill-rule:nonzero;clip-rule:evenodd;stroke-linecap:round;stroke-linejoin:round;" version="1.1" viewBox="0 0 1692 134" width="100%" xml:space="preserve" xmlns="http://www.w3.org/2000/svg" xmlns:vectornator="http://vectornator.io" xmlns:xlink="http://www.w3.org/1999/xlink">
<defs/>
<clipPath id="ArtboardFrame">
<rect height="134" width="1692" x="0" y="0"/>
</clipPath>
<g clip-path="url(#ArtboardFrame)" id="Layer-1-copy" vectornator:layerName="Layer 1 copy">
<path d="M2.27374e-13 79.4102C2.27374e-13 79.4102 43.57 55.2105 83.56 53.5221C124.14 51.8338 158.76 53.5221 208.29 61.9639C275.73 73.2196 405.84 118.805 475.07 94.0426C544.3 69.2801 547.29 68.1545 582.5 52.3966C621.89 34.3875 701.867-1.63068 800.94 0.0573161C906.578 1.74632 1098.16 93.4798 1176.94 88.9776C1185.3 88.4148 1216.33 84.4753 1239.61 77.7219C1262.29 70.9685 1295.71 56.3361 1341.07 51.271C1360.17 49.0199 1390.6 45.0804 1425.82 46.206C1434.77 46.7687 1463.42 48.4571 1497.44 55.2105C1531.45 61.9639 1563.09 72.6568 1591.73 76.0335C1653.21 82.2241 1692 73.2196 1692 73.2196L1692 134L2.27374e-13 134L2.27374e-13 79.4102ZM135.48 70.4057C139.66 76.0335 147.42 72.6568 161.14 72.6568C174.87 72.6568 197.55 79.4102 195.76 78.8474C193.97 78.2847 177.26 70.4057 159.95 68.1545C142.04 65.3406 131.9 64.7778 135.48 70.4057ZM245.3 85.6008C245.3 85.6008 259.62 86.7264 278.72 90.6659C297.82 95.1682 340.19 106.424 368.84 110.363C417.78 116.554 463.14 110.363 458.96 109.8C454.18 109.237 401.66 113.177 353.92 103.61C334.22 99.6705 298.41 91.2287 279.91 88.4148C260.22 85.0381 245.3 85.6008 245.3 85.6008ZM586.68 86.1636C576.53 90.1031 664.06 59.7128 695.092 51.8338C707.625 48.4571 734.095 42.8292 756.775 40.5781C780.051 38.327 809.892 38.327 809.295 37.7642C809.295 36.6386 774.679 33.2623 742.451 37.7642C710.222 42.2665 711.416 43.9548 697.092 46.7687C674.41 51.271 596.82 82.2241 586.68 86.1636ZM503.72 95.1682C502.53 95.1682 508.49 97.4193 532.37 88.9776C556.24 80.5358 572.36 69.2801 573.55 68.1545C574.74 67.5918 552.66 78.2847 534.16 85.0381C516.25 91.7915 504.32 95.1682 503.72 95.1682ZM2.98 100.233C3.58 99.6705 14.32 94.0426 31.63 86.1636C48.94 78.2847 72.81 70.4057 71.62 70.9685C70.43 70.9685 50.73 74.3452 27.45 85.0381C4.18 95.731 2.39 100.796 2.98 100.233ZM1505.19 68.7173C1504.6 69.8429 1516.53 69.8429 1532.05 75.4707C1547.57 81.0986 1564.28 84.4753 1578.6 86.7264C1602.48 91.2287 1648.43 86.1636 1646.04 85.6008C1644.25 85.0381 1597.11 87.2892 1571.44 81.6614C1558.31 78.8474 1557.12 78.8474 1537.42 72.6568C1517.73 66.4662 1505.79 67.029 1505.19 68.7173ZM1256.32 82.2241C1253.93 82.7869 1235.43 91.2287 1206.18 96.8565C1176.94 103.047 1153.07 99.6705 1153.07 101.359C1153.07 103.047 1159.04 106.424 1190.07 103.047C1221.11 99.6705 1258.71 81.6614 1256.32 82.2241ZM1264.67 96.2938C1263.48 95.731 1244.38 103.61 1230.65 105.861C1216.93 107.549 1219.31 108.675 1219.31 109.237C1219.31 109.8 1225.88 110.363 1235.43 108.112C1245.58 105.298 1265.87 96.8565 1264.67 96.2938ZM1133.37 109.237C1132.78 108.112 1112.48 104.735 1099.95 99.1077C1087.42 93.4798 1089.21 95.731 1088.61 96.2938C1088.01 96.8565 1093.38 100.796 1102.93 103.61C1112.48 106.986 1133.97 110.363 1133.37 109.237ZM1301.68 71.5312C1302.27 69.8429 1299.89 68.7173 1290.34 72.6568C1280.79 76.5963 1274.82 79.973 1277.21 79.4102C1279.59 78.8474 1282.58 77.1591 1292.13 74.9079C1302.27 72.6568 1301.08 73.2196 1301.68 71.5312ZM1486.1 64.2151C1487.29 64.2151 1473.56 59.7128 1466.4 59.15C1459.24 58.5872 1454.46 58.5872 1454.46 60.2756C1454.46 61.9639 1455.06 63.0895 1464.01 62.5267C1473.56 61.9639 1484.9 64.2151 1486.1 64.2151ZM783.632 15.2533C784.229 14.6903 797.956 16.9413 828.394 16.9413C858.235 16.9413 909.562 30.4483 931.048 36.6386C952.533 42.8292 871.365 14.6903 832.571 13.5643C793.778 12.4393 783.035 15.8153 783.632 15.2533Z" fill="#ffffff" fill-rule="nonzero" opacity="1" stroke="none" vectornator:layerName="path"/>
</g>
</svg>
