<?xml version="1.0" encoding="UTF-8" standalone="no"?>
<!DOCTYPE svg PUBLIC "-//W3C//DTD SVG 1.1//EN" "http://www.w3.org/Graphics/SVG/1.1/DTD/svg11.dtd">
<!-- Created with Vectornator (http://vectornator.io/) -->
<svg height="100%" stroke-miterlimit="10" style="fill-rule:nonzero;clip-rule:evenodd;stroke-linecap:round;stroke-linejoin:round;" version="1.1" viewBox="0 0 2500 160" width="100%" xml:space="preserve" xmlns="http://www.w3.org/2000/svg" xmlns:vectornator="http://vectornator.io" xmlns:xlink="http://www.w3.org/1999/xlink">
<defs/>
<path d="M0 0L2500 0L2500 160L0 160L0 0Z" fill="#fdfaf0" fill-rule="nonzero" opacity="1" stroke="none"/>
<clipPath id="ArtboardFrame">
<rect height="160" width="2500" x="0" y="0"/>
</clipPath>
<g clip-path="url(#ArtboardFrame)" id="Layer-1" vectornator:layerName="Layer 1">
<g opacity="1" vectornator:layerName="Group 1">
<path d="M2098.57 127.409C2098.57 127.409 2034.2 112.961 1975.11 111.953C1915.15 110.945 1864 111.953 1790.81 116.993C1691.17 123.713 1498.93 150.928 1396.63 136.145C1294.34 121.361 1289.93 120.689 1237.9 111.281C1179.7 100.53 1061.53 79.0263 915.15 80.0342C759.066 81.0422 475.997 135.809 359.594 133.121C347.25 132.785 301.394 130.433 267.003 126.401C233.492 122.369 184.11 113.633 117.09 110.609C88.8718 109.265 43.8983 106.913-8.12997 107.585C-21.3574 107.921-63.6855 108.929-113.95 112.961C-164.215 116.993-210.952 123.377-253.279 125.393C-344.108 129.089-401.428 123.713-401.428 123.713L-401.428 160L2098.57 160L2098.57 127.409ZM1898.39 122.033C1892.22 125.393 1880.75 123.377 1860.48 123.377C1840.19 123.377 1806.68 127.409 1809.33 127.073C1811.97 126.737 1836.66 122.033 1862.24 120.689C1888.7 119.009 1903.68 118.673 1898.39 122.033ZM1736.13 131.105C1736.13 131.105 1714.97 131.777 1686.75 134.129C1658.53 136.817 1595.93 143.537 1553.6 145.888C1481.28 149.584 1414.27 145.888 1420.44 145.552C1427.5 145.216 1505.1 147.568 1575.64 141.857C1604.75 139.505 1657.66 134.465 1684.99 132.785C1714.09 130.769 1736.13 131.105 1736.13 131.105ZM1231.73 131.441C1246.72 133.793 1117.4 115.649 1071.54 110.945C1053.03 108.929 1013.92 105.569 980.406 104.226C946.014 102.882 901.923 102.882 902.805 102.546C902.805 101.874 953.952 99.8577 1001.57 102.546C1049.19 105.234 1047.43 106.241 1068.59 107.921C1102.1 110.609 1216.74 129.089 1231.73 131.441ZM1354.3 136.817C1356.07 136.817 1347.25 138.161 1311.98 133.121C1276.7 128.081 1252.89 121.361 1251.13 120.689C1249.37 120.353 1281.99 126.737 1309.33 130.769C1335.79 134.801 1353.42 136.817 1354.3 136.817ZM2094.17 139.841C2093.28 139.505 2077.41 136.145 2051.84 131.441C2026.26 126.737 1990.99 122.033 1992.75 122.369C1994.51 122.369 2023.62 124.385 2058.01 130.769C2092.4 137.153 2095.04 140.177 2094.17 139.841ZM-125.414 121.025C-124.532 121.697-142.169 121.697-165.096 125.057C-188.024 128.417-212.715 130.433-233.879 131.777C-269.153 134.465-337.054 131.441-333.526 131.105C-330.881 130.769-261.217 132.113-223.297 128.753C-203.897 127.073-202.133 127.073-173.033 123.377C-143.932 119.681-126.296 120.017-125.414 121.025ZM242.312 129.089C245.839 129.425 273.175 134.465 316.385 137.825C359.594 141.521 394.868 139.505 394.868 140.513C394.868 141.521 386.05 143.537 340.194 141.521C294.339 139.505 238.783 128.753 242.312 129.089ZM229.965 137.489C231.73 137.153 259.948 141.857 280.23 143.201C300.512 144.208 296.985 144.881 296.985 145.216C296.985 145.552 287.285 145.888 273.175 144.544C258.183 142.864 228.201 137.825 229.965 137.489ZM423.969 145.216C424.85 144.544 454.832 142.528 473.352 139.169C491.87 135.809 489.225 137.153 490.107 137.489C490.988 137.825 483.052 140.177 468.943 141.857C454.832 143.872 423.087 145.888 423.969 145.216ZM175.292 122.705C174.41 121.697 177.937 121.025 192.047 123.377C206.156 125.729 214.974 127.745 211.447 127.409C207.919 127.073 203.51 126.065 189.401 124.721C174.41 123.377 176.174 123.713 175.292 122.705ZM-97.1951 118.337C-98.9589 118.337-78.6767 115.649-68.0947 115.313C-57.5127 114.977-50.458 114.977-50.458 115.985C-50.458 116.993-51.3398 117.665-64.5673 117.329C-78.6767 116.993-95.4315 118.337-97.1951 118.337ZM940.723 89.106C939.841 88.77 919.559 90.114 874.586 90.114C830.494 90.114 754.657 98.1777 722.91 101.874C691.165 105.569 811.094 88.77 868.414 88.098C925.732 87.426 941.605 89.442 940.723 89.106Z" fill="#ffffff" fill-rule="nonzero" opacity="1" stroke="none" vectornator:layerName="path"/>
</g>
<g opacity="1" vectornator:layerName="Group 4">
<path d="M848.572 127.409C848.572 127.409 912.948 112.961 972.035 111.953C1031.99 110.945 1083.15 111.953 1156.33 116.993C1255.97 123.713 1448.22 150.928 1550.51 136.145C1652.81 121.361 1657.21 120.689 1709.24 111.281C1767.44 100.53 1885.61 79.0263 2031.99 80.0342C2188.08 81.0422 2471.15 135.809 2587.55 133.121C2599.89 132.785 2645.75 130.433 2680.14 126.401C2713.65 122.369 2763.03 113.633 2830.05 110.609C2858.27 109.265 2903.25 106.913 2955.27 107.585C2968.5 107.921 3010.83 108.929 3061.09 112.961C3111.36 116.993 3158.1 123.377 3200.42 125.393C3291.25 129.089 3348.57 123.713 3348.57 123.713L3348.57 160L848.572 160L848.572 127.409ZM1048.75 122.033C1054.93 125.393 1066.39 123.377 1086.66 123.377C1106.95 123.377 1140.46 127.409 1137.82 127.073C1135.17 126.737 1110.48 122.033 1084.9 120.689C1058.44 119.009 1043.46 118.673 1048.75 122.033ZM1211.01 131.105C1211.01 131.105 1232.17 131.777 1260.39 134.129C1288.61 136.817 1351.22 143.537 1393.55 145.888C1465.86 149.584 1532.87 145.888 1526.7 145.552C1519.65 145.216 1442.04 147.568 1371.5 141.857C1342.4 139.505 1289.49 134.465 1262.15 132.785C1233.06 130.769 1211.01 131.105 1211.01 131.105ZM1715.41 131.441C1700.42 133.793 1829.74 115.649 1875.6 110.945C1894.12 108.929 1933.23 105.569 1966.74 104.226C2001.13 102.882 2045.22 102.882 2044.34 102.546C2044.34 101.874 1993.19 99.8577 1945.57 102.546C1897.95 105.234 1899.72 106.241 1878.55 107.921C1845.05 110.609 1730.41 129.089 1715.41 131.441ZM1592.84 136.817C1591.08 136.817 1599.89 138.161 1635.17 133.121C1670.44 128.081 1694.25 121.361 1696.01 120.689C1697.78 120.353 1665.15 126.737 1637.81 130.769C1611.36 134.801 1593.72 136.817 1592.84 136.817ZM852.975 139.841C853.862 139.505 869.73 136.145 895.307 131.441C920.883 126.737 956.152 122.033 954.394 122.369C952.635 122.369 923.528 124.385 889.131 130.769C854.748 137.153 852.103 140.177 852.975 139.841ZM3072.56 121.025C3071.68 121.697 3089.31 121.697 3112.24 125.057C3135.17 128.417 3159.86 130.433 3181.02 131.777C3216.3 134.465 3284.2 131.441 3280.67 131.105C3278.03 130.769 3208.36 132.113 3170.44 128.753C3151.04 127.073 3149.28 127.073 3120.18 123.377C3091.08 119.681 3073.44 120.017 3072.56 121.025ZM2704.83 129.089C2701.31 129.425 2673.97 134.465 2630.76 137.825C2587.55 141.521 2552.28 139.505 2552.28 140.513C2552.28 141.521 2561.09 143.537 2606.95 141.521C2652.81 139.505 2708.36 128.753 2704.83 129.089ZM2717.18 137.489C2715.41 137.153 2687.2 141.857 2666.91 143.201C2646.63 144.208 2650.16 144.881 2650.16 145.216C2650.16 145.552 2659.86 145.888 2673.97 144.544C2688.96 142.864 2718.94 137.825 2717.18 137.489ZM2523.17 145.216C2522.29 144.544 2492.31 142.528 2473.79 139.169C2455.27 135.809 2457.92 137.153 2457.04 137.489C2456.16 137.825 2464.09 140.177 2478.2 141.857C2492.31 143.872 2524.06 145.888 2523.17 145.216ZM2771.85 122.705C2772.73 121.697 2769.21 121.025 2755.1 123.377C2740.99 125.729 2732.17 127.745 2735.7 127.409C2739.23 127.073 2743.63 126.065 2757.74 124.721C2772.73 123.377 2770.97 123.713 2771.85 122.705ZM3044.34 118.337C3046.1 118.337 3025.82 115.649 3015.24 115.313C3004.66 114.977 2997.6 114.977 2997.6 115.985C2997.6 116.993 2998.48 117.665 3011.71 117.329C3025.82 116.993 3042.58 118.337 3044.34 118.337ZM2006.42 89.106C2007.3 88.77 2027.59 90.114 2072.56 90.114C2116.65 90.114 2192.49 98.1777 2224.23 101.874C2255.98 105.569 2136.05 88.77 2078.73 88.098C2021.41 87.426 2005.54 89.442 2006.42 89.106Z" fill="#ffffff" fill-rule="nonzero" opacity="1" stroke="none" vectornator:layerName="path"/>
</g>
<g opacity="1" vectornator:layerName="Group 2">
<path d="M1153.94 32.5911C1153.94 32.5911 1218.32 47.0387 1277.41 48.0467C1337.36 49.0546 1388.52 48.0467 1461.7 43.0068C1561.34 36.287 1753.59 9.07164 1855.88 23.8553C1958.18 38.6389 1962.58 39.3109 2014.61 48.7186C2072.81 59.4703 2190.98 80.9737 2337.36 79.9658C2493.45 78.9578 2776.52 24.1913 2892.92 26.8792C2905.26 27.2152 2951.12 29.5672 2985.51 33.599C3019.02 37.6309 3068.4 46.3667 3135.42 49.3906C3163.64 50.7346 3208.62 53.0865 3260.64 52.4145C3273.87 52.0786 3316.2 51.0706 3366.46 47.0387C3416.73 43.0068 3463.47 36.623 3505.79 34.607C3596.62 30.9112 3653.94 36.287 3653.94 36.287L3653.94 3.062e-13L1153.94 3.78104e-17L1153.94 32.5911ZM1354.12 37.9669C1360.3 34.607 1371.76 36.623 1392.03 36.623C1412.32 36.623 1445.83 32.5911 1443.19 32.9271C1440.54 33.263 1415.85 37.9669 1390.27 39.3109C1363.81 40.9909 1348.83 41.3269 1354.12 37.9669ZM1516.38 28.8952C1516.38 28.8952 1537.54 28.2232 1565.76 25.8713C1593.98 23.1833 1656.59 16.4633 1698.92 14.1116C1771.23 10.4155 1838.24 14.1116 1832.07 14.4478C1825.02 14.7839 1747.41 12.4316 1676.87 18.1433C1647.77 20.4954 1594.86 25.5353 1567.52 27.2152C1538.43 29.2312 1516.38 28.8952 1516.38 28.8952ZM2020.78 28.5592C2005.79 26.2073 2135.11 44.3507 2180.97 49.0546C2199.49 51.0706 2238.6 54.4305 2272.11 55.7744C2306.5 57.1184 2350.59 57.1184 2349.71 57.4544C2349.71 58.1264 2298.56 60.1423 2250.94 57.4544C2203.32 54.7664 2205.09 53.7585 2183.92 52.0786C2150.42 49.3906 2035.78 30.9112 2020.78 28.5592ZM1898.21 23.1833C1896.45 23.1833 1905.26 21.8394 1940.54 26.8792C1975.81 31.9191 1999.62 38.6389 2001.38 39.3109C2003.15 39.6469 1970.52 33.263 1943.18 29.2312C1916.73 25.1993 1899.09 23.1833 1898.21 23.1833ZM1158.35 20.1594C1159.23 20.4954 1175.1 23.8553 1200.68 28.5592C1226.25 33.263 1261.52 37.9669 1259.76 37.6309C1258.01 37.6309 1228.9 35.615 1194.5 29.2312C1160.12 22.8473 1157.47 19.8233 1158.35 20.1594ZM3377.93 38.9749C3377.05 38.3029 3394.68 38.3029 3417.61 34.943C3440.54 31.5831 3465.23 29.5672 3486.39 28.2232C3521.67 25.5353 3589.57 28.5592 3586.04 28.8952C3583.4 29.2312 3513.73 27.8872 3475.81 31.2471C3456.41 32.9271 3454.65 32.9271 3425.55 36.623C3396.45 40.3189 3378.81 39.9829 3377.93 38.9749ZM3010.2 30.9112C3006.68 30.5752 2979.34 25.5353 2936.13 22.1754C2892.92 18.4794 2857.65 20.4954 2857.65 19.4872C2857.65 18.4794 2866.46 16.4633 2912.32 18.4794C2958.18 20.4954 3013.73 31.2471 3010.2 30.9112ZM3022.55 22.5113C3020.78 22.8473 2992.57 18.1433 2972.28 16.7994C2952 15.7916 2955.53 15.1194 2955.53 14.7839C2955.53 14.4478 2965.23 14.1116 2979.34 15.4555C2994.33 17.1355 3024.31 22.1754 3022.55 22.5113ZM2828.54 14.7839C2827.66 15.4555 2797.68 17.4716 2779.16 20.8314C2760.64 24.1913 2763.29 22.8473 2762.41 22.5113C2761.53 22.1754 2769.46 19.8233 2783.57 18.1433C2797.68 16.1278 2829.43 14.1116 2828.54 14.7839ZM3077.22 37.295C3078.1 38.3029 3074.58 38.9749 3060.47 36.623C3046.36 34.271 3037.54 32.2551 3041.07 32.5911C3044.6 32.9271 3049 33.935 3063.11 35.279C3078.1 36.623 3076.34 36.287 3077.22 37.295ZM3349.71 41.6628C3351.47 41.6628 3331.19 44.3507 3320.61 44.6867C3310.03 45.0227 3302.97 45.0227 3302.97 44.0147C3302.97 43.0068 3303.85 42.3348 3317.08 42.6708C3331.19 43.0068 3347.95 41.6628 3349.71 41.6628ZM2311.79 70.894C2312.67 71.23 2332.96 69.886 2377.93 69.886C2422.02 69.886 2497.86 61.8223 2529.6 58.1264C2561.35 54.4305 2441.42 71.23 2384.1 71.902C2326.78 72.574 2310.91 70.558 2311.79 70.894Z" fill="#ffffff" fill-rule="nonzero" opacity="1" stroke="none" vectornator:layerName="path"/>
</g>
<g opacity="1" vectornator:layerName="Group 3">
<path d="M1464.36 32.5911C1464.36 32.5911 1399.99 47.0387 1340.9 48.0467C1280.94 49.0546 1229.79 48.0467 1156.61 43.0068C1056.96 36.287 864.719 9.07164 762.424 23.8553C660.131 38.6389 655.722 39.3109 603.693 48.7186C545.493 59.4703 427.327 80.9737 280.942 79.9658C124.858 78.9578-158.211 24.1913-274.613 26.8792C-286.958 27.2152-332.814 29.5672-367.205 33.599C-400.716 37.6309-450.098 46.3667-517.117 49.3906C-545.336 50.7346-590.31 53.0865-642.338 52.4145C-655.565 52.0786-697.893 51.0706-748.158 47.0387C-798.422 43.0068-845.16 36.623-887.487 34.607C-978.316 30.9112-1035.64 36.287-1035.64 36.287L-1035.64 1.35832e-13L1464.36 1.35832e-13L1464.36 32.5911ZM1264.19 37.9669C1258.01 34.607 1246.55 36.623 1226.27 36.623C1205.99 36.623 1172.48 32.5911 1175.12 32.9271C1177.77 33.263 1202.46 37.9669 1228.03 39.3109C1254.49 40.9909 1269.48 41.3269 1264.19 37.9669ZM1101.92 28.8952C1101.92 28.8952 1080.76 28.2232 1052.54 25.8713C1024.32 23.1833 961.719 16.4633 919.388 14.1116C847.077 10.4155 780.062 14.1116 786.233 14.4478C793.288 14.7839 870.895 12.4316 941.433 18.1433C970.54 20.4954 1023.45 25.5353 1050.79 27.2152C1079.88 29.2312 1101.92 28.8952 1101.92 28.8952ZM597.522 28.5592C612.513 26.2073 483.192 44.3507 437.337 49.0546C418.819 51.0706 379.708 54.4305 346.198 55.7744C311.807 57.1184 267.715 57.1184 268.597 57.4544C268.597 58.1264 319.744 60.1423 367.362 57.4544C414.982 54.7664 413.218 53.7585 434.382 52.0786C467.891 49.3906 582.531 30.9112 597.522 28.5592ZM720.096 23.1833C721.86 23.1833 713.042 21.8394 677.768 26.8792C642.495 31.9191 618.684 38.6389 616.922 39.3109C615.158 39.6469 647.786 33.263 675.122 29.2312C701.578 25.1993 719.215 23.1833 720.096 23.1833ZM1459.96 20.1594C1459.07 20.4954 1443.21 23.8553 1417.63 28.5592C1392.05 33.263 1356.78 37.9669 1358.54 37.6309C1360.3 37.6309 1389.41 35.615 1423.81 29.2312C1458.19 22.8473 1460.83 19.8233 1459.96 20.1594ZM-759.622 38.9749C-758.74 38.3029-776.377 38.3029-799.304 34.943C-822.232 31.5831-846.923 29.5672-868.087 28.2232C-903.36 25.5353-971.262 28.5592-967.734 28.8952C-965.089 29.2312-895.425 27.8872-857.505 31.2471C-838.105 32.9271-836.341 32.9271-807.241 36.623C-778.14 40.3189-760.504 39.9829-759.622 38.9749ZM-391.896 30.9112C-388.369 30.5752-361.033 25.5353-317.823 22.1754C-274.613 18.4794-239.34 20.4954-239.34 19.4872C-239.34 18.4794-248.158 16.4633-294.014 18.4794C-339.869 20.4954-395.425 31.2471-391.896 30.9112ZM-404.243 22.5113C-402.478 22.8473-374.26 18.1433-353.978 16.7994C-333.696 15.7916-337.223 15.1194-337.223 14.7839C-337.223 14.4478-346.923 14.1116-361.033 15.4555C-376.024 17.1355-406.007 22.1754-404.243 22.5113ZM-210.238 14.7839C-209.358 15.4555-179.376 17.4716-160.856 20.8314C-142.338 24.1913-144.983 22.8473-144.101 22.5113C-143.22 22.1754-151.156 19.8233-165.265 18.1433C-179.376 16.1278-211.12 14.1116-210.238 14.7839ZM-458.916 37.295C-459.798 38.3029-456.271 38.9749-442.161 36.623C-428.052 34.271-419.234 32.2551-422.761 32.5911C-426.289 32.9271-430.698 33.935-444.807 35.279C-459.798 36.623-458.034 36.287-458.916 37.295ZM-731.403 41.6628C-733.167 41.6628-712.885 44.3507-702.303 44.6867C-691.721 45.0227-684.666 45.0227-684.666 44.0147C-684.666 43.0068-685.548 42.3348-698.775 42.6708C-712.885 43.0068-729.639 41.6628-731.403 41.6628ZM306.515 70.894C305.633 71.23 285.351 69.886 240.378 69.886C196.286 69.886 120.449 61.8223 88.7022 58.1264C56.9572 54.4305 176.886 71.23 234.206 71.902C291.524 72.574 307.398 70.558 306.515 70.894Z" fill="#ffffff" fill-rule="nonzero" opacity="1" stroke="none" vectornator:layerName="path"/>
</g>
</g>
</svg>
